<svg width="116" height="116" viewBox="0 0 116 116" fill="none" xmlns="http://www.w3.org/2000/svg">
<rect width="116" height="116" rx="20" fill="black"/>
<path d="M49.6154 82.2981C33.4615 87.149 33.4615 74.2132 27 72.5962M72.2308 92V79.4845C72.352 77.9425 72.1438 76.3922 71.6202 74.9369C71.0966 73.4816 70.2695 72.1545 69.1938 71.0439C79.3385 69.912 90 66.0636 90 48.4061C89.9992 43.8909 88.2641 39.5489 85.1538 36.2787C86.6266 32.3284 86.5225 27.9621 84.8631 24.0866C84.8631 24.0866 81.0508 22.9548 72.2308 28.8729C64.8259 26.8641 57.0203 26.8641 49.6154 28.8729C40.7954 22.9548 36.9831 24.0866 36.9831 24.0866C35.3237 27.9621 35.2195 32.3284 36.6923 36.2787C33.5589 39.5732 31.822 43.9544 31.8462 48.5031C31.8462 66.0312 42.5077 69.8797 52.6523 71.1409C51.5894 72.2404 50.7696 73.5515 50.2464 74.9891C49.7231 76.4266 49.5081 77.9583 49.6154 79.4845V92" stroke="white" stroke-width="4" stroke-linecap="round" stroke-linejoin="round"/>
</svg>
