<svg width="124" height="124" viewBox="0 0 124 124" fill="none" xmlns="http://www.w3.org/2000/svg">
<g filter="url(#filter0_d_16_9)">
<rect x="4" width="116" height="116" rx="20" fill="black"/>
<rect x="4.5" y="0.5" width="115" height="115" rx="19.5" stroke="black"/>
</g>
<path d="M44.75 57.75H33.5833V90.75H44.75V57.75Z" stroke="white" stroke-width="3" stroke-linecap="round" stroke-linejoin="round"/>
<path d="M72.6667 55C77.109 55 81.3695 56.7384 84.5107 59.8327C87.6519 62.9271 89.4167 67.1239 89.4167 71.5V90.75H78.25V71.5C78.25 70.0413 77.6618 68.6424 76.6147 67.6109C75.5676 66.5795 74.1475 66 72.6667 66C71.1859 66 69.7657 66.5795 68.7187 67.6109C67.6716 68.6424 67.0833 70.0413 67.0833 71.5V90.75H55.9167V71.5C55.9167 67.1239 57.6814 62.9271 60.8226 59.8327C63.9639 56.7384 68.2243 55 72.6667 55Z" stroke="white" stroke-width="3" stroke-linecap="round" stroke-linejoin="round"/>
<path d="M39.1666 49.5C42.2502 49.5 44.75 47.0376 44.75 44C44.75 40.9624 42.2502 38.5 39.1666 38.5C36.0831 38.5 33.5833 40.9624 33.5833 44C33.5833 47.0376 36.0831 49.5 39.1666 49.5Z" stroke="white" stroke-width="3" stroke-linecap="round" stroke-linejoin="round"/>
<defs>
<filter id="filter0_d_16_9" x="0" y="0" width="124" height="124" filterUnits="userSpaceOnUse" color-interpolation-filters="sRGB">
<feFlood flood-opacity="0" result="BackgroundImageFix"/>
<feColorMatrix in="SourceAlpha" type="matrix" values="0 0 0 0 0 0 0 0 0 0 0 0 0 0 0 0 0 0 127 0" result="hardAlpha"/>
<feOffset dy="4"/>
<feGaussianBlur stdDeviation="2"/>
<feComposite in2="hardAlpha" operator="out"/>
<feColorMatrix type="matrix" values="0 0 0 0 0 0 0 0 0 0 0 0 0 0 0 0 0 0 0.25 0"/>
<feBlend mode="normal" in2="BackgroundImageFix" result="effect1_dropShadow_16_9"/>
<feBlend mode="normal" in="SourceGraphic" in2="effect1_dropShadow_16_9" result="shape"/>
</filter>
</defs>
</svg>
